<?xml version="1.0" encoding="UTF-8"?>
<!DOCTYPE svg PUBLIC "-//W3C//DTD SVG 1.1//EN" "http://www.w3.org/Graphics/SVG/1.1/DTD/svg11.dtd">
<!-- Creator: CorelDRAW -->
<svg xmlns="http://www.w3.org/2000/svg" xml:space="preserve" width="2984px" height="2746px" version="1.1" style="shape-rendering:geometricPrecision; text-rendering:geometricPrecision; image-rendering:optimizeQuality; fill-rule:evenodd; clip-rule:evenodd"
viewBox="0 0 2959.07 2723.04"
 xmlns:xlink="http://www.w3.org/1999/xlink"
 xmlns:xodm="http://www.corel.com/coreldraw/odm/2003">
 <defs>
  <style type="text/css">
   <![CDATA[
    .fil3 {fill:#111420}
    .fil1 {fill:#111420}
    .fil0 {fill:#FDFDFD}
    .fil2 {fill:#FF635C}
    .fil8 {fill:#111420;fill-rule:nonzero}
    .fil5 {fill:#5F6575;fill-rule:nonzero}
    .fil4 {fill:#5F6575;fill-rule:nonzero}
    .fil7 {fill:#FDFDFD;fill-rule:nonzero}
    .fil9 {fill:#FDFDFD;fill-rule:nonzero}
    .fil6 {fill:#FF635C;fill-rule:nonzero}
   ]]>
  </style>
 </defs>
 <g id="Camada_x0020_1">
  <metadata id="CorelCorpID_0Corel-Layer"/>
  <path class="fil0" d="M2658.83 1575.38l37.86 -3.4c38.95,-3.49 75.52,9.09 104.09,35.8l115.55 108.03c28.68,26.81 43.77,62.92 42.69,102.17l-3.11 112.89c-0.9,32.8 -13.01,62.81 -33.85,86.02l12.92 24.37c21.37,40.26 21.33,86.35 -0.11,126.57 -21.43,40.23 -59.67,65.97 -105,70.68l-64.02 6.67c-9.75,59.5 -57.14,104.98 -117.55,111.95l-99.42 11.46c-21.5,27.49 -43.67,54.58 -66.3,81.06 -26.32,30.8 -55.21,63.92 -85.51,90.79 -26.72,23.69 -59.96,36.29 -95.36,39.02 -529.14,40.69 -1057.78,88.06 -1585.71,142.37 -36.24,3.73 -80.24,-0.74 -111.91,-19.54 -76.66,-45.5 -142.56,-118.77 -191.55,-195.56 -31.43,3.44 -65.11,1.07 -90.05,-2.68 -88.09,-13.26 -161.23,-59.13 -214.08,-130.48 -70.57,-95.29 -92.91,-211.35 -65.48,-324.04l-1.37 -1.33c-48.29,-46.74 -55.38,-122.09 -16.62,-176.99 21.27,-30.12 44.28,-59 68.86,-86.48 49.15,-54.96 133.57,-60.85 189.84,-13.67 26.36,-10.42 53.61,-17.5 81.14,-21.14 -68.73,-152.85 -106.97,-322.39 -106.97,-500.85 0,-451.86 245.17,-846.48 609.74,-1058.08l2.52 -8.57 21.13 -12.07c8.78,-5.03 19.2,-7.85 30.39,-8.93 5.06,-2.61 10.15,-5.18 15.26,-7.72 10.79,-8.38 23.78,-14.01 37.7,-17.94 16.73,-7.62 33.67,-14.87 50.8,-21.74 14.55,-22.61 33.25,-41.83 58.86,-54.8 27.49,-13.91 54.91,-4.58 79.56,8.71 6.53,-1.74 13.09,-3.44 19.67,-5.08 8.06,-5.92 16.88,-11.53 27.01,-17.01 52.71,-28.54 118.25,-39.85 177.26,-45.49 26.23,-2.51 48.48,8.86 61.21,26.59 10.44,-0.26 20.91,-0.39 31.41,-0.39 68.78,0 136.23,5.68 201.92,16.59 34.67,-22.1 75.16,-28.61 116.34,-9.95 34.05,15.42 66.94,33.24 98.45,53.34 8.68,5.53 15.3,12.53 20.36,20.47 335.77,128.58 600.38,400.98 718.43,741.82 12.08,34.89 23.77,74.67 32.43,110.25 22.61,92.96 34.6,190.08 34.6,290 0,113.01 -15.33,222.43 -44.03,326.31z"/>
  <g id="_1471658106896">
   <circle class="fil1" cx="1480.33" cy="1249.07" r="1162.05"/>
   <circle class="fil2" cx="1480.33" cy="1249.07" r="1077.38"/>
   <circle class="fil0" cx="1480.33" cy="1249.07" r="1095.49"/>
   <circle class="fil2" cx="1480.33" cy="1249.07" r="1052.84"/>
   <path class="fil3" d="M741.8 1691.32c4.35,-3.16 20.24,-68.03 23.8,-78.83 21.29,-64.45 56.77,-97.85 109.76,-137.02 32.75,-24.2 68.32,-48.53 106.78,-72.94 10.22,-6.48 34.36,-17.54 37.9,-25.82 7.03,-16.48 15.52,-32.22 25.53,-47.25 0.56,-0.87 0.62,-1.77 0.19,-2.7 -31.77,-65.38 -34.56,-134.61 -25.54,-207.7 5.8,-47.01 11.84,-94.64 18.16,-142.82 0.22,-1.58 -2.08,-2.15 -2.6,-0.59 -12.46,38.08 -27.4,75.73 -44.78,112.98 -37.18,43.29 -84.69,66 -142.54,68.2 -0.53,0.03 -0.74,-0.65 -0.34,-0.96 9.26,-7.04 15.8,-14.29 19.61,-21.82 17.98,-14.71 31.05,-27.02 39.26,-36.84 35.24,-42.26 53.3,-95.72 65.48,-150.01 2.17,-9.6 4.09,-15.46 -1.18,-22.46 -29.52,-39.2 -45.1,-77.37 -58.28,-124.23 -0.37,-1.3 -1.03,-1.46 -1.96,-0.46 -33.52,35.17 -71.73,64.17 -114.65,87.04 -1.02,0.54 -2.04,-0.81 -1.17,-1.68 3.74,-3.62 7.06,-7.8 9.88,-12.55 19.83,-33.34 34.24,-68.26 43.2,-104.79 10.9,-36.66 16.14,-73.69 15.74,-111.09 -0.34,-30.83 -0.5,-46.61 -0.44,-47.32 2.7,-39.17 15.28,-73.56 27.55,-110.37 0.62,-1.89 0.25,-2.11 -1.08,-0.65 -25.85,27.54 -70.64,64.57 -88.6,95.5 -52.53,-105.61 40.26,-234.52 119.86,-276.78 1.03,-0.56 -14.99,-44.02 -0.13,-94.51 10.86,-6.21 49.55,4.61 63.27,13.23 -9.67,-13.98 -18.64,-28.28 -10.58,-34.58 15.72,-12.28 65.44,-14.7 83.27,-16.32 14.65,-36.89 30.61,-59.98 54.35,-72 8.55,-4.33 63.49,31.16 67.06,37.96 29.15,-32.9 60.98,-75.88 214.88,-90.59 33.62,-3.21 -83.44,63.78 -38.92,49.94 71.28,-22.16 168.65,2.64 234.15,42.59 9.33,5.7 39.79,10.09 60.74,18.38 20.59,-30.8 64.97,-110.02 124.21,-83.18 31.51,14.28 61.79,30.67 90.88,49.23 12.48,7.96 9.83,91.8 8.62,95.07 68.96,29.81 123.93,67.69 181.18,115.03 98.74,81.59 149.8,227.66 148.15,355.45 -0.72,61.73 -7.13,111.19 -12.18,171.94 -4.84,57.7 9.29,113.2 56.21,150.32 47.25,37.4 102.01,54.79 164.26,52.18 12.71,-0.52 26.34,-5.27 40.87,-14.19 -32.28,42.24 -84.07,51.15 -132.62,40.78 -25.66,-5.48 -49.95,-15.17 -72.11,-29.25 -17.07,-12.34 -31.76,-25.84 -44.06,-40.56 -0.55,-0.7 -1.66,0.01 -1.3,0.8l14.22 32.2c34.21,83.48 103.5,169.53 199.62,181.15 14.69,1.76 28.29,-1.33 40.78,-9.33 0.42,-0.28 0.85,0.29 0.55,0.65 -26.74,33.19 -61.97,50.42 -105.69,51.63 -29.04,0.8 -57.75,-1.97 -85.43,-10.2 -46.89,-14.41 -85.71,-38.02 -116.54,-70.84 -63.47,-67.55 -107.56,-155.64 -127.98,-247.77 -11.25,-50.79 -21.66,-109.29 -31.17,-175.54 -4.09,-28.44 -9.98,-56.3 -15.09,-84.47 -0.13,-0.71 -1.18,-0.71 -1.34,0 -20.08,92.93 -70.65,168.11 -140.68,230.82 -7.47,6.66 -10.41,12.61 -12.3,21.88 -2.7,12.92 -5.92,25.81 -7.87,39.04 -0.16,1.24 0.37,1.83 1.61,1.77 31.9,-1.34 68.36,-0.13 97.72,13.96 4.02,1.93 6.87,3.49 10.93,6 43.23,26.75 59.2,75 63.67,123.6l0 0c8.65,15.37 17.54,30.53 26.34,44.46 15.71,24.87 36.54,39.72 48.86,51.78 3.49,3.42 6.03,7.51 7.91,10.45 32.69,51.19 53.29,83.29 61.75,96.34 57.33,88.13 137.18,159.18 215.49,229.15 36.36,32.49 126.1,107.26 142.4,148.6 4.44,11.27 6.97,22.24 -12.03,29.58 -87.23,22.53 -181.24,33.05 -272.58,40.28 -46.37,3.67 -92.43,3.14 -141.72,23.29 -15.04,6.15 -17.88,21.83 -38.9,28.03 -19.19,5.66 -43.77,7.18 -46.93,7.46 -31.03,-28.35 -122.6,-2.72 -157.26,-37.18 -37.84,-37.61 -36.94,31.97 -32.28,-24.39 -38.08,9.79 -41.1,-69.11 -55.33,-10.22 -0.09,0.4 -7.29,7.79 -18.13,9.11 -30.5,3.71 -88.43,4.14 -91.61,5.14 -21.77,6.86 -36.33,31.98 -36.74,32.43 -16.4,17.65 -8.68,32.01 -102.23,34.62 -29.81,0.83 -49.3,-12.15 -61.84,-16.97 -62.52,-24.02 -84.6,-9.16 -184.45,49.33 -3.37,1.97 -7,1.95 -10.43,2.13 -90.54,-4.24 -163.57,-2.61 -242.85,3.09 -19.03,1.37 32.8,-94.96 -33.09,-93.17 -3.41,0.1 -37.19,1.09 -45.21,0.99 -70.43,-0.89 -150.88,-0.58 -210.93,-1.8 9.14,-53.86 8.75,-35.6 47.04,-110.84zm477.39 -506.23c2.2,1.08 2.11,1.89 -0.31,2.42 -36.71,6.32 -83.86,19.02 -98.54,58.98 -4.57,8.85 -11.84,21.27 -14.15,26.63 -0.02,0.05 -15.61,-13.16 -35.37,4.43 -0.99,0.87 -1.52,0.66 -1.55,-0.68 -1.61,-52.27 12.12,-100.89 30.06,-149.32 6.42,-17.36 14.66,-33.84 24.67,-49.43 0.4,-0.68 0.8,-0.65 1.21,0.06 1.74,5.8 6.58,15.92 9.15,20.88 20.06,37.79 44.69,66.09 84.83,86.03z"/>
   <path class="fil4" d="M943.37 689.11l21.72 131.17c0.04,0.03 0.04,0.03 0,0 -14.59,-42.08 -19.08,-78.06 -23.02,-131.14 -0.03,-0.4 0.16,-0.65 0.56,-0.71l0.03 0c0.4,-0.06 0.62,0.16 0.71,0.68zm934.32 -449.8c12.4,3.56 26.16,10.93 41.25,22.12 39.38,29.22 71.3,60.3 95.71,93.27 69.11,93.43 113.2,207.52 134.46,325.95 0.86,4.78 1.98,13.05 3.31,24.82 0.96,8.34 2.23,16.58 3.88,24.79 2.85,45.62 -3.57,103.78 -24.82,145.05 -6.14,11.9 -15.68,20.39 -28.64,25.44 -1.02,0.41 -1.55,0.03 -1.58,-1.05 -2.1,-68.08 -25.22,-129.65 -51.81,-193.45 -26.34,-63.25 -55.87,-124.97 -88.56,-185.12 -31.76,-58.44 -71.67,-111.46 -96.96,-173.4 -0.43,-1.02 0.34,-2.14 1.46,-2.14l0.27 0.01 0.11 0c8.76,0.22 60.32,3.65 63.2,4.8 -0.25,-2.52 -1.17,-6.54 -2.54,-11.42 -2.81,-11.75 -10.47,-32.63 -16.13,-46.7 -2.19,-5.53 -4.1,-10.02 -5.4,-12.62l-0.03 -0.07 -0.04 -0.08 -0.04 -0.07 -0.02 -0.04 -0.01 -0.03 -0.04 -0.07 -0.04 -0.07 -0.03 -0.07 -0.04 -0.07 -0.03 -0.06 -0.04 -0.07 -0.02 -0.05 -0.01 -0.02 -0.03 -0.06 -0.04 -0.06 -0.16 -0.3c-6.51,-11.52 -18.72,-24.76 -26.59,-39.16zm-272.68 -49.21c-89.06,-25.44 -178.89,-24.82 -269.5,1.8 -11.56,3.4 -52.77,18.12 -52.46,33.15 0.16,6.57 1.83,15.25 5.05,26.06 4.99,17.85 12.77,37.09 23.27,57.7 0.93,1.8 -0.92,3.78 -2.78,2.97l-1.89 -0.83 -24.58 -26.9c-10.56,-14.69 -24.1,-31.51 -29.96,-47.04 -9.45,-25.13 -7.04,-50.04 7.25,-74.74 2.84,-4.92 5.49,-9.39 8.02,-13.48 19.72,-31.94 31.9,-40.8 69.04,-60.73 0.25,-0.13 0.35,-0.4 0.28,-0.65 -0.09,-0.28 -0.34,-0.44 -0.62,-0.37 -27.85,5.14 -53.82,13.57 -77.87,25.31 -24.77,12.07 -47.88,29.96 -61.62,52.45 -11.18,18.3 -16.16,39.64 -10.79,63.35 1.61,7.1 5.05,13.95 10.28,20.61 -0.09,2.69 -1.61,4.09 -4.55,4.24 -2.82,-0.46 -6.04,1.24 -9.67,5.18 -8.02,8.7 -14.69,16.36 -20.02,23.02 -24.51,30.58 -39.91,78.8 -43.22,115.83 -4.34,48.46 3.68,96.49 24.07,144.09 15.65,45.15 40.35,83.29 74.03,114.43l38.42 31.24c1.06,-6.11 -0.12,-12.55 -3.5,-19.4 -4.21,-8.52 -6.69,-13.88 -7.43,-16.11 -12.12,-36.23 -23.62,-72.6 -34.49,-109.17 -0.13,-0.43 0.06,-0.87 0.46,-1.05 0.41,-0.19 0.9,-0.06 1.15,0.28 13.79,18.65 30.46,34.27 50.01,46.88 2.05,1.33 3.41,0.8 4.06,-1.52 4.65,-16.08 9.55,-31.95 14.72,-47.59 12.61,-38.27 31.27,-75.52 48.93,-112.08 10.94,-22.72 18.81,-44.22 26.43,-67.09 0.44,-1.27 2.14,-1.46 2.82,-0.31 19.89,33 43.17,67.02 73.44,91.63 0.84,0.65 1.18,0.46 1.02,-0.56l-11.12 -89.71c-0.03,-0.22 0.09,-0.4 0.31,-0.46 0.18,-0.07 0.4,0.03 0.49,0.21 12.68,24.86 25.78,49.18 39.36,72.95 38.95,68.17 95.53,127.94 167.3,161.69 1.02,0.49 1.48,0.18 1.39,-0.96 -1.64,-19.71 -4.83,-39.14 -9.61,-58.26 -4.55,-18.28 -5.98,-34.58 -8.24,-52.43 -1.67,-12.92 -6.35,-24.04 -12.18,-34.89 -3.03,-5.64 -2.6,-5.92 1.27,-0.81 14.48,19.03 32.51,39.88 45.09,56.56 67.83,89.73 121.16,191.74 135.6,301.78 0.06,0.46 0.46,0.8 0.93,0.8 0.5,0 0.87,-0.37 0.93,-0.83 2.26,-22.07 4.8,-44.04 7.65,-65.94 2.45,-19 3.97,-41 2.82,-56.71 -3.1,-42.82 -7,-78.18 -11.68,-106.07 -19.3,-114.9 -92.74,-231.5 -186.63,-301.38 -0.41,-0.31 -0.44,-0.65 -0.16,-1.05l0 -0.03c0.28,-0.4 0.65,-0.5 1.05,-0.22 34.8,21.72 66.22,47.29 94.33,76.69 25.66,26.84 48.65,59.84 69.78,92.22 1.06,1.64 3.13,2.29 4.96,1.58 22.74,-8.83 50.26,-29.16 62.07,-51.93 0.46,-0.96 0.55,-2.08 0.24,-3.1 -14,-45.27 -25.9,-84.22 -63.92,-113.07 -46.61,-38.05 -101.86,-70.68 -159.83,-87.23zm-267.91 -52.43c-8.48,3.89 -16.41,8.57 -23.59,14.13 -0.49,0.37 -0.62,1.08 -0.31,1.61 0.31,0.56 0.96,0.77 1.55,0.53 43.72,-18.56 94.67,-22.65 141.58,-20.89 12.49,0.47 24.88,0.84 37.19,1.05 0.18,0 0.34,-0.12 0.37,-0.3 0.03,-0.19 -0.06,-0.38 -0.25,-0.44 -5.61,-1.76 -11.49,-3.35 -17.59,-4.74 -43.43,-9.91 -97.65,-9.89 -138.95,9.05zm-235.32 160.45c14.84,-7.34 30.46,-13.08 46.82,-17.2 1.21,-0.31 1.49,0.06 0.84,1.15 -36.57,59.03 -50.42,123.14 -41.56,192.4 0.44,3.37 -0.28,6.78 -1.95,10.16 -29.1,58.94 -44.65,122.15 -46.67,189.67 -0.03,1.02 -0.83,1.86 -1.85,1.92 -1,0.06 -1.89,-0.68 -2.05,-1.67 -10.91,-72.85 -7.41,-144.96 10.47,-216.26 0.04,-0.15 -0.06,-0.31 -0.18,-0.34 -0.16,-0.06 -0.34,0 -0.4,0.16 -11.47,23.55 -23.71,48.27 -30.74,72.54 -7.25,24.91 -11.5,48.8 -12.71,71.7 -3.69,70 -3.07,140.43 1.8,211.3 0.06,1.21 -1.4,1.92 -2.26,1.05 -20.24,-19.64 -36.6,-42.05 -49.02,-67.18 -13.48,-27.27 -21.73,-63.64 -30,-95.5 -0.28,-1.08 -0.77,-1.8 -1.42,-2.17 -0.78,-0.4 -1.74,0.03 -1.93,0.9 -3.72,17.08 -9.57,33.4 -17.53,48.96 -8.37,16.33 -12.28,33.44 -19.96,49.95 -9.39,27.86 -23.36,53.11 -41.93,75.76 -0.28,0.35 -0.58,0.38 -0.93,0.13l-0.03 0c-0.34,-0.25 -0.43,-0.56 -0.21,-0.93 12.48,-21.78 21.69,-43.48 27.54,-65.01l0.71 -2.63c1.95,-7.34 3.91,-15.47 5.88,-24.39 12.55,-58.86 7.35,-92.85 15.48,-155.74 6.6,-50.61 23.21,-97.98 49.89,-142.2 32.16,-53.33 80.59,-119.95 143.9,-136.53zm725.25 343.64l-26.87 3.44 -5.57 -109.57c-0.13,-2.04 0.96,-3.96 2.78,-4.92 41.53,-22.13 67.43,-52.03 91.82,-92.31 0.43,-0.75 1.55,-0.62 1.86,0.18 10.41,26.93 16.92,54.94 19.49,84.01 0.99,11.12 1.83,22.03 -3.72,32.32 -18.93,35.04 -45.52,63.99 -79.79,86.85z"/>
   <path class="fil5" d="M1242.71 1209.85c24.79,23.12 33.65,50.88 26.55,83.32 -0.99,4.53 -2.69,6.97 -5.11,7.31 -2.63,0.41 -3.31,3.88 -1.02,5.24 19.71,11.59 32.26,16.73 40.5,39.79 -4.59,-1.95 -8.86,-4.4 -12.8,-7.28 -12.8,-9.42 -28.69,-15.37 -38.95,-25.47 -19.12,-18.91 -26.12,-41.8 -21.01,-68.73 1.95,-10.26 8.52,-22.56 11.84,-34.18zm410.9 1.8c-0.78,-9.15 -9.52,-16.68 -10.05,-17.23 63.4,-62.01 141.39,-101.15 232.61,-84.19 23.52,4.36 41.9,16.39 55.16,36.06 0.65,1.03 1.4,1.65 2.17,1.89 1.21,0.38 2.26,0.19 3.19,-0.55 -0.93,-47.32 -15.27,-81.59 -57.76,-105.51 -0.06,-0.04 -0.09,-0.1 -0.06,-0.19l0.28 -0.77c0.22,-0.59 0.65,-0.78 1.24,-0.56 34.61,13.01 56.98,36.35 67.12,70 8.24,27.39 13.07,59.15 14.5,95.31 0.21,5.7 7.5,11.53 13.14,14.72 29.77,16.95 51.16,26.47 66.74,50.42 32.6,50.04 64.42,100.58 95.47,151.62 2.58,4.27 5.64,7.31 9.14,9.14l32.17 38.86c10.81,10.31 21.6,20.38 32.32,30.24 73.84,67.89 109.71,98.96 177.73,172.83 0.77,0.84 0.62,1.46 -0.44,1.86 -21.35,8.46 -42.29,13.61 -62.9,15.5 -97.61,8.95 -160.19,57.58 -257.8,66.29 -20.23,1.8 -37.25,9.95 -51.03,24.42 -0.53,0.55 -1.49,0.09 -1.37,-0.69 5.08,-29.81 7.16,-57.82 18.25,-85.74 0.06,-0.12 0,-0.24 -0.12,-0.31 -0.12,-0.06 -0.28,-0.03 -0.34,0.1 -19.31,31.51 -34.24,64.94 -44.84,100.27 -0.46,1.49 -2.14,2.2 -3.5,1.49 -19.99,-10.38 -29.84,-18.35 -54.35,-17.88 -17.08,0.34 -6.46,0.11 -23.53,0.45 -45.41,1.32 -34.02,-17.43 -36.66,-45.54 -4.08,-43.42 3.51,-94.8 -7.71,-89.67 -11.52,5.32 -25,10.28 -40.43,14.9 -35.79,10.69 -71.71,21.07 -107.68,31.2 -10.51,2.98 -15.56,19.43 -20.45,28.11 -6.23,11.09 -30.12,11.62 -42.15,10.44 -0.89,-0.09 -1.42,-1.08 -0.96,-1.89 2.14,-3.75 4.59,-7.25 7.35,-10.56 0.37,-0.47 0.52,-0.75 0.46,-0.81l0 -0.03c-0.28,-0.28 -0.59,-0.31 -0.87,-0.03 -6.07,5.95 -12.45,14.53 -21.75,14.69 -45.55,0.86 -86.02,2.69 -102.47,53.45 -0.31,0.93 -1.12,1.61 -2.11,1.7l-52.65 5.08c-1.24,0.13 -2.41,-0.46 -3.13,-1.48 -7.09,-10.32 -16.3,-18.04 -27.64,-23.15 -1.02,-0.47 -1.55,-1.27 -1.58,-2.39 -0.93,-34.58 10.38,-65.84 33.96,-93.79 41.5,-49.24 87.02,-90.08 136.5,-122.56 0.5,-0.34 0.59,-0.74 0.28,-1.27l-0.37 -0.68c-0.31,-0.53 -0.74,-0.65 -1.27,-0.37 -63.12,31.45 -113.26,54.53 -150.41,69.29 -34.31,13.6 -66.16,32.44 -95.6,56.58 -0.96,0.8 -0.49,2.32 0.75,2.48 29.34,3.34 49.67,17.66 60.92,42.91 5.64,12.68 7.96,29.87 10.69,44.81 0.15,0.93 -0.22,1.27 -1.12,1.02 -12.36,-3.5 -27.51,-5.17 -45.46,-4.99 -38.76,0.41 -74.8,7.01 -108.11,19.84 -29.68,11.43 -67.49,35.01 -101.3,51.68 -1.73,0.87 -4.21,2.48 -7.46,4.87 -0.87,0.65 -1.83,0.86 -2.88,0.65 -19.78,-3.63 -39.64,-4.22 -59.62,-1.77 -2.14,0.28 -4.03,-1.36 -4.09,-3.5 -0.47,-14.75 -0.31,-29.5 0.46,-44.22 0,-0.12 -0.12,-0.15 -0.19,-0.06l-23.61 44.9c-0.43,0.81 -1.08,1.27 -1.98,1.39 -16.21,2.14 -34.43,1.21 -48.65,10.51 -1.52,0.99 -3.5,-0.25 -3.25,-2.05 6.22,-46.51 20.82,-74.27 46.41,-121.99 22.44,-41.8 44.9,-83.61 67.4,-125.41 8.12,-15.06 19.15,-33.37 26.99,-44.28 13.42,-18.62 31.89,-31.67 55.37,-39.1 36.29,-11.5 73.2,-17.32 110.75,-17.48 0.09,0 0.19,-0.09 0.22,-0.18 0,-0.13 -0.09,-0.22 -0.19,-0.22 -43.41,-5.64 -86.7,-3.97 -129.89,5.02 -1.03,0.22 -1.65,0.28 -1.86,0.22 -1.86,-0.69 -2.76,-2.79 -1.96,-4.62 8.12,-17.91 17.7,-34.49 28.73,-49.74 7.31,-10.13 15.62,-16.61 28.1,-20.6 84.88,-27.05 178.8,-1.64 251.37,46.08 1.02,0.68 1.55,1.89 1.33,3.09 -2.44,14.57 -6.69,28.57 -12.76,42.02 -0.47,1.06 -1.3,1.58 -2.48,1.55 -3.88,-0.06 -8.55,0.13 -12.4,-0.77 -27.24,-6.32 -54.57,-12 -82.05,-17.01 -0.34,-0.07 -0.71,0.15 -0.81,0.49 -0.09,0.34 0.06,0.71 0.41,0.84 1.08,0.43 2.23,0.59 3.5,0.49 1.45,-0.09 2.6,-0.09 2.97,0 13.36,3.94 21.91,6.23 25.72,6.94 28.91,5.43 51.66,19.5 68.24,42.15 0.65,0.86 1.27,0.86 1.92,-0.03 15.4,-21.66 35.1,-38.18 59.15,-49.52 33.19,-15.62 66.62,-31.3 100.27,-47.04 0.41,-0.19 0.62,-0.65 0.5,-1.08 -0.15,-0.44 -0.56,-0.72 -1.02,-0.65 -13.92,2.07 -27.7,1.45 -41.43,-1.8 -1.4,-0.34 -1.92,-2.05 -0.93,-3.1 95.01,-100.47 90.56,-165.95 70.61,-200.69 -17.01,-29.6 -40.49,-40.73 -43.08,-31.12zm-541.73 319.25c0.19,-18.46 -4.06,-28.41 -15.65,-41.61 -18.87,-21.48 -37.12,-42.11 -54.78,-61.91l-10.26 -16.86c-0.59,-0.96 -1.36,-1.12 -2.26,-0.46 -44.99,30.58 -89.4,61.97 -133.21,94.23 -42.8,31.48 -81.41,65.44 -99.44,116.69 -11.06,31.49 -18.81,75.18 -36.69,112.95l-17.76 25.53c-1.08,1.55 -0.68,2.3 1.21,2.2 63.74,-2.72 127.45,-5.2 191.19,-7.46 41.49,-1.49 86.86,-29.69 115.12,-58.01 42.17,-42.27 61.91,-106.44 62.53,-165.29zm-57.39 -110.62c18.13,25.19 42.27,42.27 72.42,51.19 0.96,0.28 1.98,0.25 2.91,-0.09 24.73,-9.05 40.1,-40.01 45.18,-65.01 0.93,-4.59 0.84,-7.66 -3.66,-10.38 -23.67,-14.32 -51.74,-35.82 -66.21,-59.78 -3.1,-5.14 -6.14,-9.6 -9.15,-13.38l-7.93 -16.02c-0.62,-1.27 -1.24,-1.27 -1.89,0 -8.4,16.2 -17.54,35.69 -27.42,58.53 -5.11,11.81 -13.73,28.66 -10.38,40.81 1.27,4.74 3.31,9.45 6.13,14.13zm678.62 -172.1c94.41,-35.57 193.23,6.35 268.1,65.75 31.11,24.67 57.14,49.02 77.56,80.94 0.18,0.28 0.55,0.4 0.86,0.28 0.31,-0.12 0.5,-0.46 0.41,-0.8 -4.78,-19.65 -9.61,-41.28 -19.84,-57.83 -11.21,-18.19 -26.52,-34.67 -45.92,-49.48 -54.75,-41.8 -114.74,-66.5 -179.97,-74.12 -38.45,-4.5 -71.89,13.69 -101.73,34.27 -0.25,0.15 -0.31,0.46 -0.19,0.71 0.16,0.28 0.44,0.37 0.72,0.28zm101.45 212.85c-52.09,47.69 -85.84,108.83 -107.93,175.29 -0.06,0.22 -0.18,0.28 -0.4,0.19 -0.5,-0.22 -0.62,-0.19 -0.34,0.12 0.12,0.09 0.21,0.09 0.31,-0.03 26.96,-44.25 53.88,-88.53 80.75,-132.81 8.92,-14.69 18.75,-28.72 29.5,-42.14 0.12,-0.16 0.12,-0.25 0.03,-0.31l-0.74 -0.44c-0.38,-0.24 -0.87,-0.18 -1.18,0.13z"/>
   <g>
    <g>
     <path class="fil6" d="M1806.48 231.13c-1.4,0.95 25.58,7.23 53.44,28.14 23.73,17.82 45.33,48.31 55.8,73.2l5.94 10.51c-16.95,-4.71 -56.68,-5.48 -77.58,-6.52l-0.65 -0.03 -0.34 -0.02 -0.97 -0.05c-7.87,-0.44 -11.34,-2.51 -14.53,-10.11 -10.01,-23.95 -25.13,-48.8 -45.34,-74.49 -3.81,-4.83 -4.4,-10.5 -1.7,-17.01 0.34,-0.84 1.02,-1.52 1.89,-1.83 8.15,-3.03 16.17,-3.62 24.04,-1.79z"/>
     <path class="fil2" d="M1831.32 184.63c2.47,-5.77 4.81,-11.62 7.02,-17.55 1.67,-4.5 0.84,-8.34 -3.53,-11.07 -25.51,-15.86 -52.59,-28.32 -81.25,-37.37 -6.54,-2.04 -11.93,-1.64 -17.29,2.08 -12.7,8.75 -25.2,18.28 -35.87,29.48 -8.43,8.85 -15.72,18.74 -21.06,30.11 -1.11,2.38 -0.52,4.21 1.77,5.48l52.74 29.78c1.71,0.96 3.84,0.62 5.18,-0.81 7.56,-8.24 16.11,-15.18 25.62,-20.85 2.11,-1.24 3.66,-0.74 4.68,1.49 1.8,3.99 3.16,8.58 4.12,13.69 0.47,2.64 1.27,4.34 2.36,5.15 1.42,1.02 3.41,1.61 5.92,1.76 10.44,0.65 20.79,0.99 31.05,1.03 1.76,0.03 3.37,-0.96 4.21,-2.51 5.17,-9.7 9.95,-19.66 14.33,-29.89z"/>
    </g>
    <path class="fil6" d="M1084.12 186.19c8.86,-16.45 17.29,-33.49 27.45,-46.38 11.59,-14.63 45.83,23.52 50.79,31.51 3.44,5.61 4.09,12.15 1.92,19.62 -0.28,0.96 -0.9,1.39 -1.92,1.27 -25.6,-3.2 -50.76,-6.79 -76.6,-3.6 -1.33,0.16 -2.29,-1.24 -1.64,-2.42z"/>
    <path class="fil6" d="M1149.41 214.95c-2.67,10.72 -8.62,30.68 -17.76,37.09 -9.2,6.48 -18.31,13.23 -27.3,20.24 -22.37,17.41 -56.02,3.87 -73.31,-14.6 -12.18,-12.98 -22.35,-25.66 -30.53,-37.96 -0.86,-1.3 -0.55,-2.2 0.96,-2.66 48.37,-14.88 97.24,-16.3 146.6,-4.28 0.96,0.22 1.58,1.21 1.34,2.17z"/>
    <path class="fil6" d="M960.32 253.81c11.19,3.81 21.73,9.11 31.58,15.96 15.03,10.44 23.8,16.88 18.47,35.69 -0.87,3.01 -2.85,4.68 -5.98,5.02l-38.95 4.22c-5.89,1.55 -9.8,-2.79 -11.75,-12.99 -2.57,-13.6 -5.07,-26.52 -5.8,-40.08 -0.18,-3.46 -0.25,-6.96 -0.18,-10.52 0.03,-1.45 0.75,-1.92 2.08,-1.39l10.53 4.09z"/>
    <path class="fil2" d="M908.17 452.34c25.5,-44.34 62.01,-74.71 86.21,-119.51 0.71,-1.31 0,-2.95 -1.46,-3.29 -52.25,-31.15 -162.25,69.33 -177.88,214.26 16.81,-22.7 80.79,-69.99 93.13,-91.46z"/>
   </g>
   <path class="fil7" d="M960.32 253.81c3.47,20.29 5.18,40.59 5.12,60.89 -5.89,1.55 -9.8,-2.79 -11.75,-12.99 -3.22,-17.07 -6.35,-33.06 -5.98,-50.6 0.03,-1.45 0.75,-1.92 2.08,-1.39l10.53 4.09zm-23.17 79.45c-49.12,25.16 -104.59,98.71 -119.87,194 18.94,-55.43 80.68,-155.44 119.87,-194zm133.67 944.29c-0.99,0.87 -1.52,0.66 -1.55,-0.68 -1.61,-52.27 12.12,-100.89 30.06,-149.32 6.42,-17.36 14.66,-33.84 24.67,-49.43 0.4,-0.68 0.8,-0.65 1.21,0.06 1.74,5.8 6.58,15.93 9.15,20.89 -32.61,67.67 -38.51,114.41 -38.51,144.8 2.76,-2.85 22.24,-0.7 24.49,2.62 -4.57,8.85 -11.84,21.27 -14.15,26.63 -0.02,0.05 -15.61,-13.16 -35.37,4.43zm120.76 -1024.55c4.9,1.86 8.09,4.43 9.54,7.69 0.44,0.96 0.37,1.86 -0.21,2.72 -26.65,40.32 -45.21,85.65 -55.69,135.97 -10.19,48.93 -11.03,96.19 -2.48,141.74 -20.39,-47.6 -28.41,-95.63 -24.07,-144.09 3.31,-37.03 18.71,-85.25 43.22,-115.83 5.33,-6.66 12,-14.32 20.02,-23.02 3.63,-3.94 6.85,-5.64 9.67,-5.18zm108.33 -145.33c-35.54,16.74 -78.4,54.79 -82.49,95.81 -3,30.22 12.49,45.31 37.19,61.79 9.23,6.17 18.4,12.43 27.51,18.78l24.58 26.9 2.26 3.38c0.46,0.68 0.34,1.58 -0.28,2.13 -0.59,0.53 -1.52,0.53 -2.14,0 -28.14,-24.41 -58.38,-37.58 -92.03,-52.24 -3.94,-1.7 -10.07,-6.88 -18.38,-15.46 -5.23,-6.66 -8.67,-13.51 -10.28,-20.61 -11.96,-52.86 27.48,-93.92 72.41,-115.8 24.05,-11.74 50.02,-20.17 77.87,-25.31 0.28,-0.07 0.53,0.09 0.62,0.37 0.07,0.25 -0.03,0.52 -0.28,0.65l-36.56 19.61zm464.93 169.66c-18.63,-10.32 -33.69,-18.07 -45.24,-23.24 -113.76,-51.04 -251.09,-79.36 -371.85,-34.8 -18,6.66 -37.89,17.26 -59.65,31.82 -3.22,-10.81 -4.89,-19.49 -5.05,-26.06 -0.31,-15.03 40.9,-29.75 52.46,-33.15 90.61,-26.62 180.44,-27.24 269.5,-1.8 57.97,16.55 113.22,49.18 159.83,87.23zm-668.86 1045.5l-41.49 97.45c-2.82,-4.68 -4.86,-9.39 -6.13,-14.13 -3.35,-12.15 5.27,-29 10.38,-40.81 9.88,-22.84 19.02,-42.33 27.42,-58.53 0.65,-1.27 1.27,-1.27 1.89,0l7.93 16.02zm-54.53 104.55c-47.69,36.16 -96.03,71.33 -144.99,105.48 -30.55,21.32 -52.8,46.6 -66.75,75.88 -21.44,45.09 -38.7,91.35 -66.74,133.03 -2.11,3.13 -4.87,5.76 -8.28,7.93 -0.89,0.56 -1.98,-0.37 -1.55,-1.33l6.45 -14.44c17.88,-37.77 25.63,-81.46 36.69,-112.95 18.03,-51.25 56.64,-85.21 99.44,-116.69 43.81,-32.26 88.22,-63.65 133.21,-94.23 0.9,-0.66 1.67,-0.5 2.26,0.46l10.26 16.86zm201.26 -217.53c-3.32,11.62 -9.89,23.92 -11.84,34.18 -5.11,26.93 1.89,49.82 21.01,68.73 10.26,10.1 26.15,16.05 38.95,25.47 3.94,2.88 8.21,5.33 12.8,7.28l9.7 24.66c0.43,1.09 0.03,2.36 -0.96,2.98l-50.7 33.09c-0.93,0.59 -2.04,0.75 -3.1,0.41 -27.17,-8.87 -60.39,-16.4 -82.36,-27.98 -25.81,-13.58 -45.95,-33.66 -60.39,-60.21 -0.5,-0.9 -0.62,-1.99 -0.31,-3.01 9.88,-34.08 28.44,-76.63 60.64,-93.14 15.71,-8.09 32.16,-14.1 49.33,-18.04 8.15,-1.86 13.88,0 17.23,5.58zm903.79 221.96l32.17 38.86c17.88,28.53 33.74,58.03 47.59,88.49 5.74,12.62 10.11,25.6 13.14,38.92 0.22,1.03 -1.12,1.49 -1.61,0.65 -5.23,-8.73 -17.47,-27.29 -29.47,-25.37 -0.87,0.12 -1.61,0.65 -2.07,1.42 -1.89,3.26 -3.38,6.63 -4.4,10.2 -0.16,0.49 -0.34,0.8 -0.62,0.96 -0.56,0.28 -0.81,0.12 -0.75,-0.5 1.65,-16.08 -0.86,-31.54 -7.46,-46.42 -13.39,-30.09 -27.12,-60.05 -41.22,-89.86 -2.07,-4.43 -3.84,-10.19 -5.3,-17.35zm139.85 -145.48c-59.08,-9.09 -104.25,-30.63 -157.54,-77.07 -33.84,-29.47 -62.31,-69.41 -81.96,-108.92 -44.71,-89.83 -65.63,-185.61 -76.26,-286.13 -0.15,-1.34 -1.98,-1.55 -2.45,-0.31 -1.64,4.27 -2.94,8.08 -5.36,12.02 -28.91,47.07 -64.02,88.93 -105.35,125.59 -4.74,4.21 -8.03,9.2 -9.8,14.94 -0.68,2.23 0.78,4.52 3.07,4.83 10.23,1.39 20.21,2.82 29.94,4.34 58.78,9.17 101.6,41.68 122.83,98.44 11.71,31.33 12.36,67.06 10.5,99.88 -0.09,1.85 0.93,3.59 2.58,4.43 11.27,5.67 22.77,11.21 34.45,16.57 34.4,15.78 47.66,36.41 68.76,70.44 42.33,68.32 81.13,128.59 143.19,188.21 26.31,25.26 85.96,79.45 179.01,162.65 45.44,40.68 36.71,31.66 50.78,52.08 -1.31,3.69 -9.71,21.64 -14.29,32.92 -14.52,-14 -98.07,-99.51 -131.55,-129.43 -78.31,-69.97 -158.16,-141.02 -215.49,-229.15 -8.46,-13.05 -29.06,-45.15 -61.75,-96.34 -11.34,-17.76 -28.82,-24.48 -45.21,-34.09 -11.13,-6.56 -22.16,-12.21 -33.16,-16.88 -2.26,-0.96 -3.69,-3.2 -3.59,-5.64 2.29,-65.01 -7.25,-143.91 -72.39,-177.99 -29.9,-15.68 -67.95,-17.05 -101.08,-15.65 -1.24,0.06 -1.77,-0.53 -1.61,-1.77 1.95,-13.23 5.17,-26.12 7.87,-39.04 1.89,-9.27 4.83,-15.22 12.3,-21.88 70.03,-62.71 120.6,-137.89 140.68,-230.82 0.16,-0.71 1.21,-0.71 1.34,0 5.11,28.17 11,56.03 15.09,84.47 9.51,66.25 19.92,124.75 31.17,175.54 20.42,92.13 64.51,180.22 127.98,247.77 30.83,32.82 69.65,56.43 116.54,70.84 6.85,2.04 13.76,3.75 20.76,5.15zm-56.3 -459.08c-7.26,41.46 -15.19,90.02 4.67,129 37.49,73.51 170.17,113.77 243.19,81.25l-26.28 25.81c-14.53,8.92 -28.16,13.67 -40.87,14.19 -62.25,2.61 -117.01,-14.78 -164.26,-52.18 -46.92,-37.12 -61.05,-92.62 -56.21,-150.32 5.05,-60.75 11.46,-110.21 12.18,-171.94 1.65,-127.79 -49.41,-273.86 -148.15,-355.45 -8.59,-7.1 -28.36,-22.35 -59.31,-45.8 -0.22,-0.16 -0.4,-0.16 -0.56,0.03 -0.58,0.73 -1.33,1.36 -0.43,2.26 66.62,65.6 116.32,146.47 138.35,237.7 14.91,61.88 22.9,124.69 23.93,188.46 -1.65,-8.21 -2.92,-16.45 -3.88,-24.79 -1.33,-11.77 -2.45,-20.04 -3.31,-24.82 -21.26,-118.43 -65.35,-232.52 -134.46,-325.95 -24.41,-32.97 -56.33,-64.05 -95.71,-93.27 -15.09,-11.19 -28.85,-18.56 -41.25,-22.12 -3.06,-0.75 -5.2,-2.11 -6.41,-4.13 -1.4,-2.32 -0.78,-3.19 1.86,-2.6 74.24,16.36 141.92,55.81 201.41,101.79 148.71,134.31 164.54,295.01 155.5,492.88zm-411.2 -646.65c-7.02,18.16 -17.27,36.64 -37.12,35.4 10.44,0.65 20.79,0.99 31.05,1.03 1.76,0.03 3.37,-0.96 4.21,-2.51 8.1,-15.23 15.24,-30.99 21.24,-47.17 1.87,-4.99 0.94,-8.63 -3.69,-11.5 -5.5,-3.44 -11.18,-6.76 -16.88,-9.86 1.62,0.97 3.28,1.99 4.99,3.05 4.36,2.73 5.2,6.57 3.53,11.06 -2.2,5.91 -4.51,13.18 -7.33,20.5zm102.81 162.38c-18.71,-57.44 -48.98,-104.47 -115.18,-111.85 -1.4,0.95 25.58,7.23 53.44,28.14 23.73,17.82 45.33,48.31 55.8,73.2l5.94 10.51zm-94.63 298.78c36.22,10.35 55.81,34.43 58.75,72.23 4.46,57.02 -22.59,118.1 -83.73,127.61 -1.14,0.15 -1.83,0.84 -2.01,1.98 -11.4,71.77 -35.3,139.07 -71.64,201.94 -0.65,1.06 -1.17,0.21 -0.93,-0.3 40.37,-94.95 60.64,-194.17 69.32,-297.26 0.99,-11.59 29.74,-32.63 38.92,-38.95l12.54 -9.77c0.84,-0.65 0.97,-1.45 0.44,-2.35 -2.48,-4.18 -5.8,-7.1 -9.92,-8.77 -10.07,-3.47 -19.77,-2.23 -29.13,3.72 -2.69,1.73 -5.51,3.41 -8.45,5.05 -1.06,0.59 -1.58,0.28 -1.58,-0.93l0.55 -50.76 26.87 -3.44zm-610.26 13.79c31.22,29.64 49.32,50.74 99.63,83.27 1.43,0.93 2.99,-1.04 1.79,-2.23l-11.09 -11.22c-0.85,-0.93 0.16,-2.34 1.3,-1.77 34.3,18.31 70.96,27.8 109.97,28.45 0.93,0.03 1.71,-0.75 1.71,-1.68 0.09,-7.09 -0.93,-15.12 -3.07,-24.07 -26.25,-110.72 -45.55,-188.44 -49.86,-290.51 -0.18,-4.61 0.03,-10.04 0.65,-16.26 0.16,-1.43 0.53,-1.49 1.18,-0.22 18.03,35.82 41.93,67.21 71.67,94.14 11.68,10.6 23.37,21.22 35.02,31.85 0.44,0.41 0.67,0.72 0.67,0.94l30.7 18.91c43.59,21.21 88.01,40.28 134.07,54.58 1.76,0.56 3.53,-0.9 3.34,-2.76l-7.84 -72.1c-0.37,-3.6 0.19,-3.75 1.65,-0.44 28.41,63.37 45.24,132.94 60.92,200.34 22.28,95.99 18.06,189.02 0.31,285.2 -0.59,3.28 -1.65,5.89 -4.12,8.4 -42.8,43.72 -90.55,81.06 -143.32,112.08 -26.18,15.4 -56.12,31.97 -89.77,49.67 -13.29,7 -27.14,10.29 -41.55,9.85 -100.37,-2.94 -215.98,-30.4 -271.88,-121.16 -8.03,-13.04 -15.4,-29.74 -22.06,-50.1 -12.34,-37.68 -22.04,-79.79 -41.96,-118.84 -4.8,-9.42 -18.07,-30.24 -39.85,-62.47 -10.1,-14.96 -11.19,-23.14 -12.77,-40.47 -3.03,-33.25 -3.81,-68.48 -2.35,-105.69 0.28,-6.82 1.21,-6.91 2.79,-0.28 13.81,34.87 19.08,50.79 45.27,86.23 4.62,6.26 6.04,5.61 4.31,-1.95 -17.79,-77.41 -12.39,-237.96 27.14,-300.88 0.16,-0.4 0.31,-0.37 0.4,0.03 5.67,27.98 16.18,58.53 31.52,91.63 30.71,66.28 67.52,124.2 129.21,159.05 1.09,0.62 2.2,-0.71 1.43,-1.67 -21.66,-27.42 -40.04,-56.7 -55.16,-87.85zm-114.99 -357.43c-47.88,32.47 -85.25,74.34 -112.11,125.56 -45.46,86.67 -72.2,178.7 -80.23,276.09 -0.65,8.09 -1.86,16.43 -3.59,25.01 -1.64,8.24 -3.1,16.55 -4.37,24.88 -9.39,27.86 -23.36,53.11 -41.93,75.76 -0.55,0.68 -1.6,-0.06 -1.17,-0.8 12.48,-21.78 21.69,-43.48 27.54,-65.01 7.13,-26.18 11.85,-51.26 14.24,-78.12 2.15,-24.64 2.64,-49.33 4.62,-74.01 0.83,-10.25 1.91,-20.43 3.21,-30.63 6.6,-50.61 23.21,-97.98 49.89,-142.2 32.16,-53.33 80.59,-119.95 143.9,-136.53zm-253.47 469.95c-0.31,-22.59 -1.09,-38.61 -2.36,-48 -7.19,-53.83 -14.69,-91.97 -9.98,-134.05 1.39,-12.25 7.59,-31.81 15.01,-48.18l0 -0.01c7.94,-7.91 15.94,-15.75 23.89,-23.65 5.13,-5.12 10.25,-10.26 15.21,-15.54 1.33,-1.46 1.7,-1.24 1.08,0.65 -12.27,36.81 -24.85,71.2 -27.55,110.37 -0.06,0.71 0.1,16.49 0.44,47.32 0.4,37.4 -4.84,74.43 -15.74,111.09zm90.6 103.93c8.65,18 19.46,35.6 32.38,52.74 5.27,7 3.35,12.86 1.18,22.46 -12.18,54.29 -30.24,107.75 -65.48,150.01 -8.21,9.82 -21.28,22.13 -39.26,36.84 35.42,-59.83 58.57,-120.35 69.48,-181.55 4.15,-23.33 4.71,-50.17 1.7,-80.5zm-260.66 890.16c7.39,-28.91 23.18,-58.8 35.97,-92.2 13.17,-34.39 23.39,-72.32 33.97,-103.14 14.66,-42.79 48.36,-82.78 85.26,-108.66 45.27,-31.76 87.8,-62.82 135.24,-85.51 17.69,-8.42 29.78,-28.91 37,-46.35 0.4,-0.99 0.43,-1.99 0.09,-3.01 -19.92,-59.52 -26.43,-120.66 -19.52,-183.35 1.86,-17.09 3.41,-34.17 4.74,-51.31 17.38,-37.25 32.32,-74.9 44.78,-112.98 0.52,-1.56 2.82,-0.99 2.6,0.59 -6.32,48.18 -12.36,95.81 -18.16,142.82 -9.02,73.09 -6.23,142.32 25.54,207.7 0.43,0.93 0.37,1.83 -0.19,2.7 -10.01,15.03 -18.5,30.77 -25.53,47.25 -3.54,8.28 -27.68,19.34 -37.9,25.82 -38.46,24.41 -74.03,48.74 -106.78,72.94 -52.99,39.17 -88.47,72.57 -109.76,137.02 -13.58,65.6 -27.27,89.1 -55.27,145.27 -0.42,1.04 -27.52,4.12 -32.08,4.4zm692.43 -364.9c40.94,4.65 79.7,16.42 116.3,35.32 10.44,5.39 31.29,19.74 42.73,16.95 45.89,-11.15 88.81,-32.07 117.47,-71.55 17.63,-24.32 30.49,-50.94 38.58,-79.85 4.21,-15.09 -8.43,-41.71 -15.65,-55.06 -3.16,-5.86 -8.09,-8.99 -14.81,-9.42 -1.21,-0.1 -1.77,0.46 -1.74,1.67 0.22,6.79 2.88,23.98 0.16,29.47 -0.59,1.14 -1.02,1.11 -1.33,-0.16 -17.01,-71.09 -48.28,-54.75 -44.66,-45.89 4.28,19.99 6.82,32.82 -0.62,48.93 -14.96,32.51 -40.34,55.59 -68.45,76.63 -0.38,0.33 -1.01,-0.2 -0.62,-0.68 15.5,-16.14 32.88,-32.29 45.65,-49.92 16.48,-22.71 30.09,-43.38 16.67,-72.54 -5.92,-12.89 -21.23,-20.61 -32.23,-7.38 -11,13.3 -21.87,26.68 -32.6,40.22 -13.07,16.55 -24.13,30.96 -43.94,36.75 -35.35,10.32 -69.65,21.2 -93.89,50.86 -10.53,12.89 -19.86,30.95 -27.95,54.19 -0.27,0.87 0.03,1.36 0.93,1.46zm276.53 -115.21c0.64,-1.85 3.46,-1.31 3.32,0.65 -1.99,33.87 -37.25,74.12 -62.07,94.94 -0.73,0.62 -1.23,-0.18 -1.7,-0.68 -0.28,-0.28 -0.28,-0.59 0,-0.9 17.69,-18.74 32.87,-39.23 45.55,-61.45 5.85,-10.25 10.81,-21.1 14.9,-32.56zm698.68 -174.34c-48,2.01 -119.28,-35.13 -130.13,-40.43l-14.22 -32.2c-0.36,-0.79 0.75,-1.5 1.3,-0.8 12.3,14.72 26.99,28.22 44.06,40.56 24.2,15.38 51.51,25.81 79.75,30.71 6.44,1.08 12.75,1.76 19.24,2.16z"/>
   <g>
    <path class="fil7" d="M672.92 878.1c0.53,-26.58 7.81,-48.06 17.79,-71.64 0.46,-1.11 1.02,-1.15 1.61,-0.09 5.92,10.87 10.19,22.34 12.79,34.45 0.16,0.69 -0.03,1.4 -0.49,1.93l-31.08 35.57c-0.22,0.25 -0.62,0.09 -0.62,-0.22z"/>
    <path class="fil7" d="M596.75 1249.33l-33.06 25.06c-1.36,1.03 -3.25,0.93 -4.49,-0.28l-25.29 -24.29c-0.9,-0.83 -0.71,-2.32 0.37,-2.91 11.31,-6.29 20.76,-14.69 28.36,-25.19 1.52,-2.11 4.64,-2.17 6.26,-0.13 7.96,10.07 17.22,18.69 27.79,25.85 0.9,0.58 0.93,1.23 0.06,1.89z"/>
    <path class="fil7" d="M2400.72 1466.33c2.32,1.42 5.11,2.2 7.31,3.53 1.83,1.08 1.99,3.72 0.28,5.02l-29.34 22.5c-1.86,1.42 -4.49,1.42 -6.32,-0.07l-31.21 -25.22c-0.9,-0.74 -0.9,-1.49 0.03,-2.2 19,-14.78 38.77,-15.99 59.25,-3.56z"/>
    <path class="fil7" d="M612.15 1659.31c-14.99,-36.37 -41.27,-60.42 -78.86,-72.1 -0.59,-0.19 -0.59,-1.03 0,-1.21 29.04,-9.73 51.69,-27.42 67.99,-53.08 3.59,-5.67 8.89,-19.96 15.86,-42.92 0.59,-1.92 1.18,-1.92 1.77,0 14.25,45.27 41.8,81.22 87.54,94.26 1.55,0.44 1.64,2.61 0.15,3.2 -44.19,17.19 -71.98,49.02 -83.35,95.44 -0.34,1.33 -0.75,1.36 -1.27,0.09 -3.32,-7.97 -6.57,-15.84 -9.83,-23.68z"/>
    <path class="fil7" d="M2303.42 790.47c13.67,38.8 35.23,61.2 72.7,77.93 1.64,0.75 1.64,3.1 -0.03,3.81 -37.47,16.52 -60.89,44.78 -70.28,84.79 -0.44,1.85 -0.96,1.89 -1.58,0.09 -14.94,-43.85 -31.02,-63.93 -71.83,-85.93 -2.2,-1.18 -1.98,-4.37 0.31,-5.27 35.23,-13.66 58.16,-38.76 68.73,-75.36 0.59,-2.07 1.27,-2.07 1.98,-0.06z"/>
   </g>
   <g>
    <g>
     <ellipse class="fil8" transform="matrix(-0.22325 0.974761 -0.974761 -0.22325 1599.12 873.051)" rx="15.8" ry="4.46"/>
     <ellipse class="fil8" transform="matrix(0.304033 0.952661 -0.952661 0.304033 1203.48 1016.8)" rx="18.68" ry="4.71"/>
     <g>
      <path class="fil8" d="M1513.22 688.55c-31.29,15.19 -47.13,57.42 -48.4,90.27 -0.06,1.42 -2.01,1.8 -2.57,0.5 -10.91,-25.85 -7.62,-55.29 3.13,-80.32 0.28,-0.65 0.09,-1.12 -0.53,-1.46l-0.71 -0.4c-0.09,-0.03 -0.25,0.06 -0.4,0.34l-16.49 25.9c-0.06,0.1 -0.18,0.13 -0.28,0.07 -0.12,-0.03 -0.15,-0.16 -0.12,-0.28 10.63,-30.56 31.58,-49.92 62.84,-58.07 18.41,-4.81 37.12,-2.14 56.15,8.02 27.14,14.5 51.41,41.18 54.1,72.76 1.06,12.27 3.5,24.91 1.99,36.25 -4.13,31.27 -32.45,54.73 -63.9,50.85 -32.1,-3.96 -54.01,-32.5 -58.87,-63.55 -0.13,-0.9 0.65,-1.64 1.51,-1.46 9.95,1.99 19.03,0.03 27.3,-5.82 2.7,-1.92 2.95,-5.86 0.5,-8.09 -8.55,-7.81 -19.21,-4.09 -28.97,-2.01 -1.06,0.21 -2.08,-0.56 -2.17,-1.65 -1.58,-22.34 4.09,-42.54 17.01,-60.54 1.36,-1.89 0.99,-2.33 -1.12,-1.31z"/>
      <path class="fil8" d="M1090.5 842.93c6.75,-19.09 20.45,-31.02 40.56,-35.88 33.06,-8 61.82,1.89 86.33,29.62 22.99,26.03 33.28,55.35 30.9,87.94 -0.75,9.95 -4.59,18.35 -11.53,25.26 -14.57,14.41 -37.22,13.54 -53.42,2.26 -16.92,-11.74 -28.33,-27.89 -34.24,-48.43 -0.34,-1.15 0.09,-1.74 1.3,-1.71 9.57,0.16 17.47,-3.5 23.7,-11 0.59,-0.71 0.5,-1.76 -0.21,-2.35 -8.65,-7.04 -21.11,-5.39 -30.68,-2.61 -1.27,0.38 -2.57,-0.4 -2.85,-1.7 -4.46,-20.98 -1.27,-40.53 9.54,-58.63 0.71,-1.17 0.37,-1.67 -0.96,-1.52 -20.05,2.45 -31.11,13.24 -33.22,32.32 -2.63,23.99 4.16,47.1 20.42,69.38 0.84,1.12 0.65,2.05 -0.52,2.79l-0.87 0.53c-0.56,0.34 -1.3,0.25 -1.74,-0.28 -5.76,-6.97 -12.02,-12.95 -18.74,-17.97 -5.02,-3.75 -8.52,-7.38 -10.54,-10.88 -6.78,-11.87 -10.81,-26.06 -12.02,-42.64l-7.69 14.6c-0.59,1.08 -0.8,1.02 -0.71,-0.22 0.71,-10.26 3.13,-19.89 7.19,-28.88z"/>
      <path class="fil8" d="M1639 845.23c0,-0.87 0.68,-1.59 1.55,-1.59l1.42 -0.03c3.07,0 5.58,3.85 5.61,8.62l0.13 14.93c0.03,4.78 -2.45,8.68 -5.49,8.68l-1.42 0.03c-0.9,0 -1.61,-0.71 -1.61,-1.58l-0.19 -29.06z"/>
      <ellipse class="fil8" transform="matrix(-0.0819385 0.996637 -0.996637 -0.0819385 1621.74 862.174)" rx="15.59" ry="5.08"/>
      <path class="fil8" d="M1404.86 1005.89c-14.1,32.45 -47.25,61.14 -84.81,45.77 -10.13,-4.12 -16.61,-11.62 -19.46,-22.43 -0.4,-1.52 1.21,-2.79 2.57,-2.05 29.35,16.02 54.11,12.39 74.28,-10.94 7.09,-8.21 13.32,-20.23 19.74,-30.33 2.66,-4.19 6.32,-5.46 11,-3.85 41.43,14.23 83.38,19.43 113.75,-18.84 4.8,-6.01 9.42,-12.02 13.91,-18.03 1.31,-1.77 4.13,-0.93 4.28,1.27 1.86,25.66 -19.52,49.95 -40,59.46 -26.59,12.37 -64.12,7.81 -92.93,-1.11 -0.93,-0.28 -1.92,0.18 -2.33,1.08z"/>
      <ellipse class="fil8" transform="matrix(0.464842 0.885394 -0.885394 0.464842 1223.28 1008.84)" rx="16.42" ry="4.15"/>
      <ellipse class="fil8" transform="matrix(0.0975829 0.995227 -0.995227 0.0975829 1182.07 1025.32)" rx="17.54" ry="4.71"/>
     </g>
    </g>
    <path class="fil8" d="M1132.24 696.43c-48.95,13.86 -90.12,42.06 -99.45,74.39 -15.21,-32.72 77.54,-98.56 99.45,-74.39zm408.51 -143.85c-9.34,-4.4 26.26,1.85 -12.14,-0.58 -36.78,-2.32 -99.32,12.79 -112.75,26.64 -0.96,0.72 -1.27,0.47 -0.9,-0.68 3.2,-24.11 59.81,-40.81 104.17,-39.07 20.95,0.82 14.86,-2.32 12.65,-0.99 -2.04,1.22 0.12,4.5 8.97,14.68z"/>
   </g>
   <path class="fil3" d="M2518.54 2308.95c-45.75,59.97 -118.88,148.37 -161.59,186.24 -16.81,14.91 -37.72,22.26 -59.87,23.97 -529.65,40.73 -1058.84,88.15 -1587.26,142.51 -22.85,2.35 -55.18,0.3 -74.87,-11.38 -80.69,-47.9 -148.85,-132.68 -193.63,-213.34 -15.61,10.74 -63.05,14.34 -109.83,7.29 -72.19,-10.86 -131.12,-48.12 -174.48,-106.66 -68.17,-92.06 -81.65,-202.51 -45.79,-306.12l-27.6 -26.71c-26.96,-26.1 -30.91,-68.02 -9.27,-98.66 19.93,-28.23 41.49,-55.29 64.53,-81.05 27.91,-31.21 75.45,-34.19 107.04,-6.68 9.13,7.96 18.08,16.12 26.84,24.48 90.32,-49.41 190.86,-45.05 269.1,0.93l1.54 -15.59c3.52,-36.3 32.46,-64.98 68.85,-68.15 0.24,-0.02 0.45,-0.04 0.69,-0.06l254.22 -19.79c39.39,-3.25 73.55,24.46 80.62,61.33l178.66 -14.58c24.15,-2.07 46.35,7.54 61.54,23.78l100.38 -8.35c2.89,-6.73 6.88,-13.1 11.96,-19.08 13.46,-15.89 30.82,-24.67 51.6,-26.1l124.84 -8.57c33.33,-2.29 63.04,16.85 74.72,48.16l5.07 13.59 10.76 -25.23c11.4,-26.75 35.47,-43.57 64.51,-45.08l137.65 -7.14c18.51,-0.96 35.35,4.28 49.18,15.15 0.29,-0.02 0.58,-0.04 0.87,-0.06l128.76 -7.91c25.05,-1.54 48.05,9.28 62.69,27.7 9.27,-5.37 19.87,-8.78 31.25,-9.75l108.02 -9.14c2.8,-0.23 5.57,-0.33 8.29,-0.28 12.82,-17.93 32.4,-28.79 55.3,-30.27l113.16 -7.31c18.24,-1.17 35.15,3.82 48.87,14.06l141.67 -16.67 0.07 -0.55c4.24,-35.23 31.81,-61.98 67.15,-65.14l117.34 -10.52c21.83,-1.96 41.38,4.76 57.39,19.73l115.55 108.03c16.11,15.07 24.14,34.28 23.54,56.33l-3.11 112.9c-0.75,27.48 -15.15,50.7 -39.43,63.59l-11.87 6.31 37.4 70.49c11.95,22.51 11.92,47.31 -0.06,69.79 -11.98,22.48 -32.56,36.34 -57.89,38.97l-111.83 11.64 -5.16 42.23c-4.22,34.52 -30.71,60.83 -65.25,64.82l-103.87 11.98c-6.5,0.75 -12.84,0.72 -18.96,-0.08z"/>
   <g>
    <polygon class="fil9" points="2432.35,1918.41 2516.7,1911.57 2508.83,1990.93 2421.69,2002.94 2415.13,2060.56 2504.21,2053.32 2495.88,2139.32 2297.38,2161.66 2316.95,1970.36 2337.01,1774.38 2536.78,1748.93 2526.09,1844.31 2435.98,1855.15 "/>
    <polygon class="fil9" points="2203.39,1793.69 2316.55,1786.38 2215.75,1980.46 2274.19,2161.95 2179.2,2171.22 2137.81,2059.88 2110.33,2083 2098.21,2176.52 1992.08,2188.88 2033.26,1833.27 2141.28,1824.13 2127.49,1951.08 "/>
    <polygon class="fil9" points="1606.82,2073.52 1570.79,2251.89 1489.69,2258.77 1460.01,2080.86 1417.49,2238.15 1360.61,2028.01 1341.79,1832.5 1466.63,1823.93 1536.75,2011.83 1620.45,1815.44 1758.1,1808.3 1713.06,2001.21 1643.09,2217.26 "/>
    <path class="fil9" d="M806.85 1967.71l-32.72 319.63c-0.06,0.71 -0.62,1.24 -1.33,1.3l-112.52 10.17c-0.93,0.09 -1.67,-0.68 -1.58,-1.61l31.3 -318.55c0.09,-0.93 -0.65,-1.67 -1.58,-1.61l-99.41 9.2c-0.93,0.06 -1.67,-0.68 -1.58,-1.61l14.72 -148.09c0.06,-0.71 0.62,-1.24 1.33,-1.3l254.52 -19.81c0.9,-0.09 1.65,0.68 1.55,1.58l-14.47 146.01c-0.06,0.71 -0.62,1.24 -1.33,1.33l-35.57 2.03c-0.71,0.09 -1.27,0.62 -1.33,1.33z"/>
    <path class="fil9" d="M1797.81 2140.06l-23.93 65.93 -104.27 9.01 139.25 -391.64 128.75 -7.92 43.17 196.17 -16.89 175.86 -55.99 6.42 -14.17 -62.67 -95.92 8.84zm33.38 -88.37l49.04 -3.5 -15.43 -98.98 -33.61 102.48z"/>
    <path class="fil9" d="M183.79 2014.18l-63.71 -61.67c-0.77,-0.74 -0.83,-1.55 -0.25,-2.38 18.32,-25.94 38.06,-50.73 59.22,-74.37 0.87,-0.99 1.8,-1.06 2.82,-0.19 21.85,19.06 42.51,39.32 62.04,60.77 2.82,3.07 5.79,3.25 8.95,0.59 133.62,-112.11 314.64,-41.31 333.17,131.97 8.74,81.81 -24.51,171.36 -76.5,233.3 -44.69,53.27 -113.38,80.07 -182.21,69.72 -51.41,-7.75 -93.33,-33.56 -125.8,-77.4 -62.97,-85.03 -65.42,-186.48 -17.48,-278.89 0.25,-0.49 0.15,-1.08 -0.25,-1.45zm168.32 211.36c37.71,7.47 76.76,-29.28 87.21,-82.11 10.46,-52.81 -11.63,-101.67 -49.34,-109.15 -37.71,-7.46 -76.76,29.29 -87.21,82.11 -10.46,52.81 11.63,101.68 49.34,109.15z"/>
    <path class="fil9" d="M1257.12 2185.3l-89.57 8.84c-1.81,0.15 -3.38,1.37 -4.01,3.1l-22.09 61.2c-1.01,2.79 -2.98,4.3 -5.96,4.58l-95.02 8.62c-3.26,0.28 -4.32,-1.1 -3.23,-4.2 45.35,-126.71 90.26,-251.53 132.82,-378.21 0.53,-1.6 1.98,-2.73 3.67,-2.85l122.38 -10.19c0.97,-0.06 1.85,0.6 2.07,1.54l85.59 362.04c0.15,0.59 -0.25,1.19 -0.88,1.25l-107.43 10.81c-1.1,0.13 -1.76,-0.34 -2.01,-1.44l-14.48 -63.78c-0.22,-0.97 -0.84,-1.41 -1.85,-1.31zm-62.71 -77.54c-0.25,0.85 0.44,1.73 1.32,1.63l45.97 -3.63c0.76,-0.06 1.32,-0.75 1.2,-1.51l-16.43 -96.99c-0.25,-1.35 -2.13,-1.45 -2.5,-0.13l-29.56 100.63z"/>
    <path class="fil9" d="M1005.96 1999.67l-28 273.53c-0.06,0.61 -0.54,1.06 -1.14,1.12l-96.29 8.69c-0.8,0.08 -1.43,-0.58 -1.35,-1.37l26.78 -272.6c0.08,-0.8 -0.56,-1.44 -1.35,-1.38l-31.2 2.63c-0.8,0.06 -1.43,-0.58 -1.35,-1.38l12.59 -126.72c0.05,-0.61 0.53,-1.06 1.14,-1.12l231.73 -18.92c0.77,-0.07 1.4,0.59 1.32,1.36l-12.38 124.95c-0.05,0.61 -0.53,1.06 -1.14,1.14l-98.22 8.93c-0.61,0.08 -1.09,0.54 -1.14,1.14z"/>
    <path class="fil9" d="M2513.76 2236.37l62.41 -518.44 117.33 -10.51 115.55 108.02 -3.11 112.9 -77.48 41.16 72.23 136.11 -117.91 12.27 -40.15 -98.12 -25.01 204.63 -103.86 11.98zm143.78 -323.71l75.56 -37.43 -67.37 -59.79 -8.19 97.22z"/>
   </g>
   <path class="fil6" d="M492.71 2387.2l1981.52 -161.99c1.45,-0.1 1.86,0.49 1.18,1.75 -30.96,59.24 -132.52,171.36 -181.37,214.69 -3.5,3.08 -8.92,4.93 -16.27,5.48 -528.5,40.67 -1062.21,88.49 -1589.17,142.69 -6.5,0.68 -13.1,-0.99 -19.76,-4.95 -78.84,-46.78 -137.8,-112.19 -176.94,-196.26 -0.4,-0.84 -0.12,-1.33 0.81,-1.41z"/>
   <path class="fil1" d="M747.65 2482.48l-0.2 0.96c-2.87,13.84 -10.24,26.44 -20.58,37.76 -11.94,13.74 -28.16,24.36 -46.58,32.51 -2.78,1.23 -6.3,0.53 -7.97,-1.6l-8.36 -10.6c-0.89,-1.13 -1.13,-2.36 -0.69,-3.65 0.43,-1.29 1.41,-2.28 2.89,-2.93 26.05,-11.37 48.01,-27.51 52.98,-51.46l7.59 -36.62c0.44,-2.11 2.54,-3.68 5.25,-3.93l16.54 -1.48c1.91,-0.17 3.65,0.32 4.97,1.42 1.33,1.09 1.87,2.47 1.56,3.97l-4.63 22.3c18.51,-9.45 32.33,-21.85 40.44,-37.81l-112.1 10.04c-1.92,0.17 -3.65,-0.32 -4.98,-1.42 -1.32,-1.09 -1.86,-2.47 -1.55,-3.97l2.53 -12.19c0.44,-2.12 2.54,-3.69 5.25,-3.93l138.84 -12.43c1.97,-0.18 3.76,0.35 5.08,1.5 1.32,1.16 1.81,2.61 1.38,4.14l-3.03 10.85c-2.57,12.21 -9.61,23.24 -18.9,33.15 -11.56,12.32 -25.36,23.31 -42.05,31.31 -2.42,1.16 -5.44,0.86 -7.4,-0.74l-6.28 -5.15zm280.96 -79.67l-2.93 14.12c-0.44,2.11 -2.54,3.68 -5.25,3.93l-105.8 9.47c-1.91,0.17 -3.65,-0.32 -4.97,-1.42 -1.32,-1.09 -1.86,-2.47 -1.55,-3.97l2.92 -14.11c0.44,-2.12 2.54,-3.69 5.25,-3.93l105.8 -9.48c1.91,-0.17 3.65,0.33 4.97,1.42 1.32,1.09 1.87,2.48 1.56,3.97zm-149.94 99.47l142.97 -12.8c1.91,-0.17 3.65,0.32 4.97,1.41 1.32,1.09 1.86,2.48 1.55,3.98l-2.93 14.14c-0.44,2.11 -2.54,3.69 -5.25,3.93l-142.97 12.8c-1.91,0.17 -3.65,-0.32 -4.97,-1.41 -1.32,-1.1 -1.86,-2.48 -1.55,-3.98l2.93 -14.14c0.44,-2.11 2.54,-3.69 5.25,-3.93zm294.52 -61.06c-11.78,-7.39 -24.44,-14.14 -37.93,-19.4 -1.62,-0.63 -2.7,-1.69 -3.12,-3.08 -0.43,-1.38 -0.09,-2.72 0.99,-3.87l11.49 -12.39c1.75,-1.87 4.91,-2.48 7.53,-1.43 12.87,5.12 25.35,10.87 37.17,17.35 9.52,-15.37 16.23,-31.66 20.61,-48.4 0.62,-2.38 3.43,-4 6.5,-3.75l18.34 1.51c1.74,0.14 3.17,0.79 4.19,1.91 1.03,1.11 1.36,2.38 0.98,3.73 -5.77,20.62 -14.63,40.57 -27.27,59.22 9.55,6.89 18.46,14.54 25.64,23.01 1.55,1.82 1.3,4.18 -0.62,5.8l-16.69 14.08c-1.35,1.14 -3.14,1.65 -5.09,1.47 -1.95,-0.18 -3.53,-1.01 -4.48,-2.36 -4.56,-6.43 -10.91,-12.52 -17.52,-17.99 -20.56,23.35 -46.77,42.39 -77.71,57.33 -2.62,1.27 -5.99,0.78 -7.85,-1.13l-10.69 -11.01c-1.08,-1.11 -1.46,-2.4 -1.1,-3.78 0.36,-1.38 1.36,-2.45 2.91,-3.15 29.97,-13.44 54.7,-31.23 73.72,-53.67zm253.35 -17.21c15,11.71 28.56,24.49 40.7,38.11 1.62,1.82 1.41,4.23 -0.53,5.88l-15.75 13.4c-1.34,1.14 -3.11,1.66 -5.05,1.49 -1.94,-0.16 -3.52,-0.97 -4.5,-2.3 -8.64,-11.78 -20.55,-27.11 -33.47,-37.4 -23.8,22.32 -52.02,40.85 -85.05,54.29 -1.49,0.6 -3.05,0.7 -4.63,0.29 -1.58,-0.42 -2.75,-1.22 -3.47,-2.4l-7.28 -11.94c-1.42,-2.32 -0.17,-5.13 2.79,-6.26 30.26,-11.62 55.79,-28.47 77.33,-48.76 14.48,-13.64 28.89,-30.31 34.68,-47.95l-75.3 6.75c-1.91,0.17 -3.65,-0.33 -4.97,-1.42 -1.33,-1.09 -1.87,-2.48 -1.56,-3.97l2.93 -14.12c0.44,-2.11 2.54,-3.68 5.25,-3.93l101.67 -9.1c1.91,-0.17 3.65,0.32 4.97,1.41 1.33,1.1 1.87,2.48 1.56,3.98l-2.4 11.54c-3.94,19.01 -14.24,36.54 -27.92,52.41zm159.16 -88.4l101.67 -9.1c1.92,-0.17 3.65,0.32 4.98,1.41 1.32,1.09 1.86,2.48 1.55,3.97l-2.53 12.2c-0.44,2.12 -2.54,3.69 -5.25,3.93l-101.67 9.11c-1.91,0.17 -3.65,-0.33 -4.97,-1.42 -1.32,-1.09 -1.87,-2.48 -1.56,-3.97l2.53 -12.2c0.44,-2.11 2.54,-3.69 5.25,-3.93zm58.4 60.31l-3.66 17.66c-5.91,28.5 -26.87,48.5 -59.86,60.88 -2.82,1.06 -6.17,0.25 -7.72,-1.87l-8.22 -11.24c-0.89,-1.2 -1.05,-2.51 -0.48,-3.84 0.57,-1.32 1.72,-2.29 3.36,-2.83 11.73,-3.89 24.35,-9.44 32.36,-17.44 6.85,-6.84 10.48,-15.15 12.24,-23.63l3.14 -15.1 -59.96 5.36c-1.91,0.17 -3.65,-0.32 -4.97,-1.41 -1.32,-1.09 -1.86,-2.48 -1.55,-3.97l2.93 -14.15c0.44,-2.11 2.54,-3.68 5.25,-3.93l142.96 -12.8c1.92,-0.17 3.65,0.33 4.98,1.42 1.32,1.09 1.86,2.48 1.55,3.97l-2.93 14.14c-0.44,2.12 -2.54,3.69 -5.25,3.93l-54.17 4.85zm196.26 -56.15c6.36,9.7 11.09,20.05 14.57,30.61 0.7,2.12 -0.5,4.28 -2.96,5.33l-16.9 7.18c-1.68,0.72 -3.52,0.78 -5.26,0.17 -1.75,-0.61 -2.91,-1.72 -3.35,-3.18 -2.98,-9.85 -6.66,-20.34 -11.98,-29.57 -1.3,-2.25 -0.15,-4.91 2.63,-6.08l15.14 -6.41c1.46,-0.62 3,-0.74 4.59,-0.36 1.58,0.38 2.76,1.16 3.52,2.31zm4.87 59.88c14.41,-15.7 21.22,-36.86 24.73,-55.69 0.43,-2.32 2.91,-4.02 5.88,-4.04l15.43 -0.12c1.83,-0.01 3.41,0.56 4.59,1.65 1.17,1.1 1.62,2.42 1.3,3.84 -5.14,22.62 -14.36,45.94 -31.11,65.06 -16.74,19.12 -41,33.26 -66.93,43.87 -2.71,1.11 -5.99,0.45 -7.69,-1.53l-8.49 -9.94c-1.02,-1.2 -1.28,-2.55 -0.76,-3.94 0.52,-1.39 1.69,-2.42 3.38,-3 23.09,-7.86 45.45,-19.18 59.53,-35.99 0.05,-0.06 0.09,-0.11 0.14,-0.17zm-44.22 -43.33c6.18,8.29 10.73,22.19 13.82,31.5 0.7,2.12 -0.5,4.28 -2.96,5.33l-16.93 7.19c-1.69,0.72 -3.52,0.77 -5.26,0.17 -1.75,-0.61 -2.92,-1.72 -3.36,-3.18 -3.08,-10.15 -6.77,-20.69 -11.91,-30.33 -1.21,-2.26 0.01,-4.87 2.8,-6l15.94 -6.45c2.82,-1.15 6.26,-0.37 7.86,1.77zm275.53 58.8c-8.66,8.68 -21.23,12.68 -34.88,13.9l-19.85 1.78c-1.68,0.15 -3.18,-0.2 -4.47,-1.04 -1.29,-0.85 -2.01,-1.95 -2.12,-3.27l-1.2 -13.74c-0.22,-2.51 2.12,-4.73 5.31,-5.01l21.51 -1.93c15.13,-1.35 20.77,-10.08 22.66,-21.14 0.01,-0.04 0.02,-0.08 0.03,-0.13l10.46 -50.45 -30.68 2.75 -1.54 7.4c-8.01,38.65 -34.23,68.29 -75.76,89.81 -2.66,1.37 -6.19,0.89 -8.07,-1.11l-9.3 -9.9c-1.01,-1.08 -1.37,-2.31 -1.06,-3.63 0.31,-1.32 1.21,-2.37 2.64,-3.1 16.97,-8.65 32.49,-19.42 43.47,-32.9 9.75,-11.96 15.98,-25.44 19.8,-39.26l0.98 -4.73 -41.8 3.74c-1.91,0.17 -3.65,-0.32 -4.97,-1.42 -1.32,-1.09 -1.86,-2.47 -1.56,-3.97l2.53 -12.19c0.44,-2.12 2.54,-3.69 5.25,-3.94l45.07 -4.03 5.27 -25.39c0.44,-2.11 2.54,-3.69 5.25,-3.93l16.53 -1.48c1.92,-0.17 3.65,0.32 4.97,1.42 1.33,1.09 1.87,2.47 1.56,3.97l-4.74 22.83 51.75 -4.63c1.91,-0.18 3.64,0.32 4.97,1.41 1.32,1.09 1.86,2.48 1.55,3.97l-14.26 68.74c-2.17,10.44 -6.31,22.4 -15.3,30.6zm258.71 -89.59l-2.94 14.14c-0.44,2.11 -2.54,3.69 -5.25,3.93l-143.81 12.87c-1.91,0.18 -3.65,-0.32 -4.97,-1.41 -1.32,-1.09 -1.87,-2.48 -1.56,-3.97l2.94 -14.14c0.43,-2.12 2.54,-3.69 5.24,-3.93l143.82 -12.88c1.91,-0.17 3.65,0.32 4.97,1.41 1.32,1.1 1.87,2.48 1.56,3.98z"/>
  </g>
 </g>
</svg>
